<svg xmlns="http://www.w3.org/2000/svg" xmlns:xlink="http://www.w3.org/1999/xlink" viewBox="0 0 84.4 28.768" overflow="visible"><g><path d="M 0 0 L 84.4 0 L 84.4 28.768 L 0 28.768 Z" fill="transparent"></path><path d="M 0 25.08 C 0.176 24.014 0.088 22.947 0.44 21.943 C 0.97 20.5 1.675 19.056 2.733 17.738 C 9.17 9.58 18.517 3.556 31.125 1.046 C 44 -1.464 56.167 0.544 66.307 7.07 C 71.421 10.333 75.3 14.287 78.298 18.68 C 78.828 19.496 79.356 20.249 80.326 21.566 C 81.473 19.746 82.354 18.366 83.236 16.923 C 83.501 16.985 83.766 16.985 84.118 17.048 C 84.206 17.488 84.471 17.927 84.382 18.366 C 84.118 20.562 83.765 22.759 83.412 24.956 C 83.148 26.398 82.972 27.904 80.767 28.532 C 78.475 29.222 76.535 28.281 75.036 27.214 C 73.008 25.708 71.156 24.014 69.393 22.319 C 69.04 21.943 69.393 21.253 69.393 20.688 C 70.186 20.688 71.156 20.5 71.685 20.751 C 73.272 21.566 74.595 22.571 76.094 23.574 C 76.182 23.386 76.359 23.261 76.27 23.198 C 69.393 9.392 55.285 1.171 35.181 2.615 C 34.211 2.678 33.241 2.803 32.271 3.054 C 18.781 6.129 8.817 12.091 2.733 21.253 C 1.94 22.445 1.587 23.826 1.058 25.143 C 0.705 25.143 0.353 25.081 0 25.081 Z" fill="rgb(44,44,44)"></path></g></svg>